<svg width="20" height="20" viewBox="0 0 20 20" fill="none" xmlns="http://www.w3.org/2000/svg">
<path d="M13.9558 2.54604C13.1268 2.54378 12.3143 2.80307 11.6133 3.29362C10.9124 3.78416 10.3519 4.48568 9.99754 5.31614C9.57954 4.30943 8.86233 3.49221 7.96582 3.0011C7.06931 2.50999 6.04783 2.37476 5.07213 2.61802C4.09644 2.86127 3.22567 3.46826 2.6054 4.33753C1.98512 5.20679 1.65292 6.28564 1.66435 7.39372C1.66435 13.75 9.99754 18.3333 9.99754 18.3333C9.99754 18.3333 18.3307 13.75 18.3307 7.39372C18.3307 6.10804 17.8698 4.87501 17.0493 3.96589C16.2289 3.05677 15.1161 2.54604 13.9558 2.54604Z" fill="white"/>
</svg>
