<svg viewBox="0 0 20 20" fill="none" xmlns="http://www.w3.org/2000/svg">
<path d="M19.1624 6.75378C15.9624 3.55378 11.5041 2.38711 7.37074 3.23711L9.47074 5.33711C12.3624 5.19544 15.2957 6.21211 17.4957 8.42044L19.1624 6.75378ZM15.8291 10.0871C14.7541 9.01211 13.4624 8.31211 12.0874 7.95378L15.0291 10.8954L15.8291 10.0871ZM1.67074 1.79544L4.22907 4.33711C3.00407 4.93711 1.85407 5.73711 0.837402 6.75378L2.49574 8.42044C3.52907 7.38711 4.72074 6.62044 5.99574 6.11211L7.8624 7.97878C6.5124 8.32878 5.22907 9.02878 4.17074 10.0871V10.0954L5.82907 11.7538C6.9624 10.6204 8.44574 10.0538 9.92907 10.0371L15.8207 15.9204L16.8791 14.8704L2.74574 0.745443L1.67074 1.79544ZM7.50407 13.4204L10.0041 15.9204L12.5041 13.4204C11.1291 12.0371 8.8874 12.0371 7.50407 13.4204Z" fill="white"/>
</svg>
