<svg width="24" height="24" viewBox="0 0 24 24" fill="none" xmlns="http://www.w3.org/2000/svg">
<path d="M11.9998 7.97005V9.97005L14.6665 7.30339L11.9998 4.63672V6.63672C9.05317 6.63672 6.6665 9.02339 6.6665 11.9701C6.6665 13.0167 6.97317 13.9901 7.49317 14.8101L8.4665 13.8367C8.1665 13.2834 7.99984 12.6434 7.99984 11.9701C7.99984 9.76339 9.79317 7.97005 11.9998 7.97005ZM16.5065 9.13005L15.5332 10.1034C15.8265 10.6634 15.9998 11.2967 15.9998 11.9701C15.9998 14.1767 14.2065 15.9701 11.9998 15.9701V13.9701L9.33317 16.6367L11.9998 19.3034V17.3034C14.9465 17.3034 17.3332 14.9167 17.3332 11.9701C17.3332 10.9234 17.0265 9.95005 16.5065 9.13005Z" fill="white"/>
</svg>
