<svg preserveAspectRatio="none" width="100%" height="100%" overflow="visible" style="display: block;" viewBox="0 0 24 24" fill="none" xmlns="http://www.w3.org/2000/svg">
<g id="icon24">
<path id="Subtract" fill-rule="evenodd" clip-rule="evenodd" d="M4 2C2.89543 2 2 2.89543 2 4V20C2 21.1046 2.89543 22 4 22H20C21.1046 22 22 21.1046 22 20V4C22 2.89543 21.1046 2 20 2H4ZM7 8.668V15.496H9.124V10.936C9.532 10.516 9.904 10.324 10.216 10.324C10.756 10.324 10.996 10.6 10.996 11.536V15.496H13.144V10.936C13.552 10.516 13.924 10.324 14.236 10.324C14.776 10.324 15.016 10.6 15.016 11.536V15.496H17.152V11.272C17.152 9.568 16.504 8.5 15.016 8.5C14.104 8.5 13.468 9.028 12.88 9.628C12.532 8.896 11.956 8.5 11.008 8.5C10.084 8.5 9.496 8.968 8.932 9.532H8.884L8.74 8.668H7Z" fill="var(--fill-0, #B6B8B9)"/>
</g>
</svg>
