<svg preserveAspectRatio="none" width="100%" height="100%" overflow="visible" style="display: block;" viewBox="0 0 24 24" fill="none" xmlns="http://www.w3.org/2000/svg">
<g id="icon24">
<path id="Union (Stroke)" fill-rule="evenodd" clip-rule="evenodd" d="M7.44711 16.9782L7.02122 19.1076L9.46433 17.8874L10.0359 18.0285C10.7214 18.1977 11.447 18.2889 12.2 18.2889C16.7454 18.2889 20.1 15.0526 20.1 11.4444C20.1 7.83632 16.7454 4.6 12.2 4.6C7.65453 4.6 4.29995 7.83632 4.29995 11.4444C4.29995 13.3409 5.19574 15.0956 6.71823 16.3687L7.44711 16.9782ZM4.81106 22L5.69184 17.5961C3.85003 16.0559 2.69995 13.8696 2.69995 11.4444C2.69995 6.78071 6.95325 3 12.2 3C17.4467 3 21.7 6.78071 21.7 11.4444C21.7 16.1082 17.4467 19.8889 12.2 19.8889C11.3175 19.8889 10.4632 19.782 9.65254 19.5819L4.81106 22Z" fill="var(--fill-0, #B6B8B9)"/>
<path id="Union" fill-rule="evenodd" clip-rule="evenodd" d="M9.19995 11.3999C9.19995 11.9522 8.75224 12.3999 8.19995 12.3999C7.64767 12.3999 7.19995 11.9522 7.19995 11.3999C7.19995 10.8476 7.64767 10.3999 8.19995 10.3999C8.75224 10.3999 9.19995 10.8476 9.19995 11.3999ZM13.2 11.3999C13.2 11.9522 12.7522 12.3999 12.2 12.3999C11.6477 12.3999 11.2 11.9522 11.2 11.3999C11.2 10.8476 11.6477 10.3999 12.2 10.3999C12.7522 10.3999 13.2 10.8476 13.2 11.3999ZM16.2 12.3999C16.7522 12.3999 17.2 11.9522 17.2 11.3999C17.2 10.8476 16.7522 10.3999 16.2 10.3999C15.6477 10.3999 15.2 10.8476 15.2 11.3999C15.2 11.9522 15.6477 12.3999 16.2 12.3999Z" fill="var(--fill-0, #B6B8B9)"/>
</g>
</svg>
