<svg preserveAspectRatio="none" width="100%" height="100%" overflow="visible" style="display: block;" viewBox="0 0 24 24" fill="none" xmlns="http://www.w3.org/2000/svg">
<g id="icon24">
<path id="Vector" fill-rule="evenodd" clip-rule="evenodd" d="M11.408 3.043C10.3745 3.19417 9.42187 3.68829 8.703 4.446C7.92854 5.27971 7.49978 6.37653 7.50349 7.51445C7.5072 8.65236 7.94312 9.74636 8.723 10.575C10.624 12.611 13.918 12.426 15.603 10.19C16.898 8.471 16.768 6.034 15.297 4.446C14.8053 3.92211 14.1966 3.52192 13.5208 3.27809C12.8449 3.03426 12.1209 2.95371 11.408 3.043ZM12.821 4.728C13.307 4.872 13.65 5.082 14.041 5.476C14.61 6.05 14.881 6.695 14.879 7.476C14.8918 7.93536 14.7872 8.39038 14.575 8.798C14.422 9.109 14.328 9.237 14.044 9.522C13.663 9.905 13.339 10.109 12.847 10.273C12.578 10.363 12.473 10.375 12 10.375C11.527 10.375 11.422 10.363 11.153 10.273C10.661 10.109 10.337 9.905 9.959 9.524C9.383 8.943 9.12 8.308 9.12 7.5C9.12 6.692 9.383 6.057 9.959 5.476C10.419 5.012 10.789 4.808 11.441 4.66C11.805 4.577 12.41 4.607 12.821 4.728ZM10.9 13.545C9.272 13.71 7.954 14.115 6.82 14.8C5.069 15.858 3.77 17.607 3.218 19.651C3.11 20.053 3 20.664 3 20.87V21H21V20.87C20.999 20.476 20.782 19.551 20.536 18.891C19.576 16.323 17.547 14.525 14.829 13.836C13.947 13.612 13.417 13.553 12.18 13.54C11.7533 13.5322 11.3266 13.5339 10.9 13.545ZM13.639 15.219C16.056 15.608 17.783 16.831 18.781 18.861C18.902 19.105 19 19.327 19 19.353C19 19.389 17.352 19.4 12 19.4C6.648 19.4 5 19.389 5 19.353C5 19.327 5.098 19.105 5.219 18.861C5.956 17.362 7.059 16.328 8.588 15.703C9.262 15.427 9.952 15.265 10.96 15.145C11.326 15.101 13.237 15.154 13.639 15.219Z" fill="var(--fill-0, #B6B8B9)"/>
</g>
</svg>
