<svg preserveAspectRatio="none" width="100%" height="100%" overflow="visible" style="display: block;" viewBox="0 0 40 40" fill="none" xmlns="http://www.w3.org/2000/svg">
<g id="&#227;&#133;&#135;&#227;&#133;&#135;">
<g id="Group 5184">
<circle id="Ellipse 1028" cx="20" cy="20" r="16" stroke="var(--stroke-0, #9678FF)" stroke-width="8"/>
<g id="Ellipse 1027">
<mask id="path-2-inside-1_0_585" fill="white">
<path d="M40 20C40 17.3736 39.4827 14.7728 38.4776 12.3463C37.4725 9.91982 35.9993 7.71503 34.1421 5.85786C32.285 4.00069 30.0802 2.5275 27.6537 1.52241C25.2272 0.517315 22.6264 -4.27901e-07 20 0L20 20H40Z"/>
</mask>
<path d="M40 20C40 17.3736 39.4827 14.7728 38.4776 12.3463C37.4725 9.91982 35.9993 7.71503 34.1421 5.85786C32.285 4.00069 30.0802 2.5275 27.6537 1.52241C25.2272 0.517315 22.6264 -4.27901e-07 20 0L20 20H40Z" stroke="var(--stroke-0, #9678FF)" stroke-width="16" mask="url(#path-2-inside-1_0_585)"/>
</g>
</g>
<circle id="Ellipse 1029" cx="20" cy="20" r="13.5593" fill="var(--fill-0, white)"/>
</g>
</svg>
