<svg preserveAspectRatio="none" width="100%" height="100%" overflow="visible" style="display: block;" viewBox="0 0 40 40" fill="none" xmlns="http://www.w3.org/2000/svg">
<g id="&#227;&#133;&#135;&#227;&#133;&#135;">
<g id="Group 5184">
<circle id="Ellipse 1028" cx="20" cy="20" r="15.5" stroke="var(--stroke-0, #F2F2FA)" stroke-width="9"/>
<g id="Ellipse 1027">
<mask id="path-2-inside-1_0_574" fill="white">
<path d="M26.1803 39.0211C30.7093 37.5496 34.5646 34.5103 37.0528 30.45C39.541 26.3896 40.4987 21.5747 39.7538 16.8713C39.0088 12.1679 36.6101 7.8846 32.989 4.79188C29.3679 1.69917 24.7621 1.49489e-06 20 0L20 20L26.1803 39.0211Z"/>
</mask>
<path d="M26.1803 39.0211C30.7093 37.5496 34.5646 34.5103 37.0528 30.45C39.541 26.3896 40.4987 21.5747 39.7538 16.8713C39.0088 12.1679 36.6101 7.8846 32.989 4.79188C29.3679 1.69917 24.7621 1.49489e-06 20 0L20 20L26.1803 39.0211Z" stroke="var(--stroke-0, #9678FF)" stroke-width="18" mask="url(#path-2-inside-1_0_574)"/>
</g>
</g>
<circle id="Ellipse 1029" cx="20.0001" cy="20.0001" r="13.5593" fill="var(--fill-0, white)"/>
</g>
</svg>
