<svg width="20" height="20" viewBox="0 0 20 20" fill="none" xmlns="http://www.w3.org/2000/svg">
<path d="M1.66406 4.39167L2.73073 3.33333L16.6641 17.2667L15.6057 18.3333L7.4974 10.225V14.5833C7.4974 15.3569 7.1901 16.0987 6.64312 16.6457C6.09614 17.1927 5.35428 17.5 4.58073 17.5C3.80718 17.5 3.06532 17.1927 2.51833 16.6457C1.97135 16.0987 1.66406 15.3569 1.66406 14.5833C1.66406 13.8098 1.97135 13.0679 2.51833 12.5209C3.06532 11.974 3.80718 11.6667 4.58073 11.6667C5.03073 11.6667 5.45573 11.7667 5.83073 11.95V8.55833L1.66406 4.39167ZM17.4974 2.5V12.9167C17.4974 13.75 17.1391 14.5167 16.5641 15.05L12.4474 10.9333C12.9807 10.3583 13.7474 10 14.5807 10C15.0307 10 15.4557 10.1 15.8307 10.2833V5.39167L8.4724 6.95833L6.38073 4.86667L17.4974 2.5Z" fill="#333333"/>
</svg>
