<svg preserveAspectRatio="none" width="100%" height="100%" overflow="visible" style="display: block;" viewBox="0 0 24 24" fill="none" xmlns="http://www.w3.org/2000/svg">
<g id="icon24">
<path id="Vector" fill-rule="evenodd" clip-rule="evenodd" d="M11.3214 2.02401C10.287 2.1302 9.31376 2.33958 8.55201 2.62108C6.17053 3.50266 4.14688 5.32693 3.04534 7.58598C2.74357 8.18194 2.50796 8.80912 2.34273 9.45633C2.10117 10.366 2.026 10.9801 2.026 12.0179C2.026 12.7452 2.04304 13.0277 2.1132 13.4805C2.42477 15.5607 3.37942 17.4915 4.84348 19.0024C5.79667 19.9942 7.21995 20.9209 8.53798 21.4087C9.09125 21.6141 9.91214 21.8225 10.5596 21.9227C11.3595 22.0469 12.6865 22.0469 13.4864 21.9227C14.9362 21.7057 16.321 21.1743 17.5437 20.3659C19.0692 19.346 20.2259 18.0357 21.0026 16.4458C21.4664 15.5123 21.7802 14.5116 21.9328 13.4805C22.0571 12.6811 22.0571 11.3547 21.9328 10.5553C21.7157 9.10618 21.1841 7.72208 20.3752 6.50003C19.5704 5.29788 18.7214 4.45036 17.5186 3.65193C15.96 2.61607 14.1539 2.06008 12.2235 2.02201C11.9228 2.01313 11.622 2.0138 11.3214 2.02401ZM17.6259 9.23894L17.8765 9.47336L14.5448 13.0999C13.3629 14.3845 12.1829 15.6708 11.0047 16.9588L10.7952 17.1912L8.45278 14.88C7.66301 14.107 6.87885 13.3283 6.10037 12.5439C6.09436 12.5298 6.33992 12.2583 6.64362 11.9398L7.19689 11.3597L8.96396 13.1129L10.731 14.866L13.7069 11.6182L16.6827 8.37138L17.0295 8.68695C17.2199 8.86126 17.4876 9.1097 17.6259 9.23894Z" fill="var(--fill-0, white)"/>
</g>
</svg>
