<svg preserveAspectRatio="none" width="100%" height="100%" overflow="visible" style="display: block;" viewBox="0 0 12 12" fill="none" xmlns="http://www.w3.org/2000/svg">
<g id="Group 4756">
<path id="Union" d="M6.01465 0C8.0474 0 9.8448 1.0059 10.9336 2.5459V0.666992H12V4.5332H8.13379V3.4668H10.2588C9.39437 2.03028 7.81914 1.06641 6.01465 1.06641C3.27945 1.06651 1.06641 3.27795 1.06641 6C1.06641 8.72205 3.27945 10.9335 6.01465 10.9336C8.52265 10.9336 10.5915 9.0743 10.918 6.66699H11.9932C11.6606 9.66681 9.11056 12 6.01465 12C2.69283 11.9999 0 9.31364 0 6C9.68788e-08 2.68636 2.69283 0.000108404 6.01465 0Z" fill="var(--fill-0, #333333)"/>
</g>
</svg>
