<svg width="24" height="24" viewBox="0 0 12 12" fill="none" xmlns="http://www.w3.org/2000/svg">
<g transform="translate(0.5 2.15)" fill="#D8D8D8">
<path d="M5.5 0C8.15 0 10.2 2.2876 11 4.2876C10.2 6.28754 7.64996 7.7002 5.5 7.7002C3.35004 7.7002 0.800047 6.28754 0 4.2876C0.8 2.2876 2.85 0 5.5 0ZM5.5 0.799805C4.4154 0.799805 3.41976 1.2671 2.58154 1.99707C1.83588 2.64645 1.2476 3.47755 0.875488 4.27783C1.2327 4.96052 1.86368 5.58315 2.65527 6.05762C3.55418 6.59636 4.58852 6.8999 5.5 6.8999C6.41148 6.8999 7.44582 6.59636 8.34473 6.05762C9.13625 5.58319 9.7668 4.96044 10.124 4.27783C9.7519 3.47761 9.16406 2.6464 8.41846 1.99707C7.58024 1.2671 6.5846 0.799805 5.5 0.799805Z"/>
<path d="M7.2002 3.8501C7.2002 2.94193 6.40817 2.1499 5.5 2.1499C4.59183 2.1499 3.7998 2.94193 3.7998 3.8501C3.7998 4.76871 4.5522 5.55029 5.5 5.55029V6.3501C4.1 6.3501 3 5.2001 3 3.8501C3 2.5001 4.15 1.3501 5.5 1.3501C6.85 1.3501 8 2.5001 8 3.8501C8 5.2001 6.9 6.3501 5.5 6.3501V5.55029C6.4478 5.55029 7.2002 4.76871 7.2002 3.8501Z"/>
</g>
<path d="M2 2L10 10" stroke="#D8D8D8" stroke-width="0.9" stroke-linecap="round"/>
</svg>
