<svg preserveAspectRatio="none" width="100%" height="100%" overflow="visible" style="display: block;" viewBox="0 0 24 24" fill="none" xmlns="http://www.w3.org/2000/svg">
<g id="icon24">
<path id="Vector" d="M8 11.9556C8 10.8556 7.1 9.95557 6 9.95557C4.9 9.95557 4 10.8556 4 11.9556C4 13.0556 4.9 13.9556 6 13.9556C7.1 13.9556 8 13.0556 8 11.9556ZM10 11.9556C10 13.0556 10.9 13.9556 12 13.9556C13.1 13.9556 14 13.0556 14 11.9556C14 10.8556 13.1 9.95557 12 9.95557C10.9 9.95557 10 10.8556 10 11.9556ZM16 11.9556C16 13.0556 16.9 13.9556 18 13.9556C19.1 13.9556 20 13.0556 20 11.9556C20 10.8556 19.1 9.95557 18 9.95557C16.9 9.95557 16 10.8556 16 11.9556Z" fill="var(--fill-0, #6D7278)"/>
</g>
</svg>
