<svg preserveAspectRatio="none" width="100%" height="100%" overflow="visible" style="display: block;" viewBox="0 0 20.97 18.7383" fill="none" xmlns="http://www.w3.org/2000/svg">
<g id="Group">
<path id="Vector" d="M10.4883 0C10.5868 0 10.6843 0.0193993 10.7753 0.0570903C10.8663 0.0947813 10.949 0.150026 11.0186 0.21967C11.0883 0.289314 11.1435 0.371993 11.1812 0.462988C11.2189 0.553982 11.2383 0.651509 11.2383 0.75V4.065C11.2383 4.26391 11.1593 4.45468 11.0186 4.59533C10.878 4.73598 10.6872 4.815 10.4883 4.815C10.2894 4.815 10.0986 4.73598 9.95795 4.59533C9.8173 4.45468 9.73828 4.26391 9.73828 4.065V0.75C9.73828 0.551088 9.8173 0.360322 9.95795 0.21967C10.0986 0.0790178 10.2894 0 10.4883 0Z" fill="var(--fill-0, #95999D)"/>
<path id="Vector_2" d="M13.4775 3.73828H7.5C3.3525 3.73828 0 7.09828 0 11.2383C0 15.3858 3.36 18.7383 7.5 18.7383H13.47C17.6175 18.7383 20.97 15.3783 20.97 11.2383C20.9775 7.09828 17.6175 3.73828 13.4775 3.73828Z" fill="var(--fill-0, #A6A9AC)"/>
<path id="Vector_3" d="M10.0533 5.745H5.73328C3.38578 5.745 1.48828 3.8475 1.48828 1.5H5.80828C8.15578 1.5 10.0533 3.3975 10.0533 5.745ZM19.4808 1.5H15.1608C12.8133 1.5 10.9158 3.3975 10.9158 5.745H15.2358C17.5833 5.745 19.4808 3.8475 19.4808 1.5Z" fill="var(--fill-0, #95999D)"/>
<path id="Vector_4" d="M2.8125 7.54969H7.14C7.78669 7.55011 8.42489 7.40251 9.00573 7.1182C9.58657 6.83389 10.0946 6.42042 10.491 5.90944C10.8877 6.42082 11.3962 6.83454 11.9776 7.11886C12.559 7.40319 13.1978 7.55057 13.845 7.54969H18.165C18.165 5.20969 16.26 3.30469 13.92 3.30469H7.0575C4.71 3.30469 2.8125 5.20219 2.8125 7.54969Z" fill="var(--fill-0, #D8D8D8)"/>
</g>
</svg>
