<svg preserveAspectRatio="none" width="100%" height="100%" overflow="visible" style="display: block;" viewBox="0 0 56 56" fill="none" xmlns="http://www.w3.org/2000/svg">
<g id="Frame 1707491406">
<path d="M0 28C0 12.536 12.536 0 28 0V0C43.464 0 56 12.536 56 28V28C56 43.464 43.464 56 28 56V56C12.536 56 0 43.464 0 28V28Z" fill="#333333"/>
<path id="3" d="M24.3252 18.9932C24.8434 18.6766 25.6639 18.4318 26.7868 18.2591C27.9096 18.0864 28.802 18 29.4642 18C31.4507 18 32.9334 18.4175 33.9122 19.2524C34.8911 20.0873 35.2654 21.3108 35.035 22.9231C34.7471 24.9383 33.6099 26.4786 31.6234 27.5438C33.7827 28.2348 34.6752 29.7894 34.3009 32.2078C34.0418 34.2806 33.1781 35.8497 31.7098 36.9149C30.3855 37.865 28.6437 38.34 26.4845 38.34C24.8146 38.34 23.2024 37.9225 21.6478 37.0876C21.3311 36.9437 21.1152 36.8573 21 36.8285L22.4683 33.9352C22.5546 33.964 22.713 34.0503 22.9433 34.1943C23.2024 34.3094 23.5047 34.4246 23.8502 34.5397C24.8003 34.8564 25.6927 35.0148 26.5276 35.0148C27.3913 35.0148 28.1399 34.7989 28.7732 34.367C29.4066 33.9064 29.7953 33.1866 29.9392 32.2078C30.112 31.2289 29.9392 30.538 29.421 30.1349C28.9316 29.7318 28.327 29.5303 27.6073 29.5303C26.7436 29.5303 25.8799 29.5303 25.0162 29.5303L25.448 26.5938H26.4845C27.3482 26.5938 28.1543 26.4786 28.9028 26.2483C28.9604 26.1907 29.0755 26.1043 29.2483 25.9892C29.4498 25.8452 29.6513 25.6581 29.8529 25.4278C30.2847 24.9096 30.5582 24.2762 30.6734 23.5276C30.7885 22.7791 30.6158 22.2177 30.1552 21.8434C29.6945 21.4692 29.1331 21.282 28.471 21.282C27.8376 21.282 27.3194 21.3252 26.9163 21.4116C26.542 21.4692 26.1966 21.5411 25.8799 21.6275C25.2753 21.7427 24.8578 21.8578 24.6275 21.973L24.3252 18.9932Z" fill="#262626"/>
</g>
</svg>
