<svg preserveAspectRatio="none" width="100%" height="100%" overflow="visible" style="display: block;" viewBox="0 0 68 68" fill="none" xmlns="http://www.w3.org/2000/svg">
<g id="Frame 1707491406">
<path d="M0 34C0 15.2223 15.2223 0 34 0V0C52.7777 0 68 15.2223 68 34V34C68 52.7777 52.7777 68 34 68V68C15.2223 68 0 52.7777 0 34V34Z" fill="#9678FF"/>
<path id="2" d="M29.7867 27.0133C29.7156 25.8044 29.6089 24.6489 29.4667 23.5467C30.2844 23.0133 31.7422 22.5689 33.84 22.2133C34.5511 22.0711 35.28 22 36.0267 22C40.7911 22 42.8889 24.1867 42.32 28.56C41.8933 32.0089 39.6 35.7422 35.44 39.76C34.3378 40.8267 33.2889 41.7867 32.2933 42.64C33.5733 42.6044 34.8711 42.5511 36.1867 42.48C37.5378 42.4089 39.0311 42.3733 40.6667 42.3733L40.08 46.64H26L26.4267 43.12C30.1956 39.6711 32.8444 36.9156 34.3733 34.8533C35.7956 32.9333 36.6844 31.1911 37.04 29.6267C37.3244 27.2089 36.4 26 34.2667 26C33.6978 26 33.0044 26.0889 32.1867 26.2667C30.9778 26.5156 30.1778 26.7644 29.7867 27.0133Z" fill="white"/>
</g>
</svg>
