<svg preserveAspectRatio="none" width="100%" height="100%" overflow="visible" style="display: block;" viewBox="0 0 56 56" fill="none" xmlns="http://www.w3.org/2000/svg">
<g id="Frame 1707491406">
<path d="M0 28C0 12.536 12.536 0 28 0V0C43.464 0 56 12.536 56 28V28C56 43.464 43.464 56 28 56V56C12.536 56 0 43.464 0 28V28Z" fill="#333333"/>
<path id="260113" d="M24.1258 22.1384C24.0671 21.1405 23.9791 20.1866 23.8617 19.2768C24.5368 18.8365 25.7401 18.4696 27.4718 18.1761C28.0588 18.0587 28.6605 18 29.2769 18C33.2099 18 34.9416 19.8051 34.4719 23.4152C34.1197 26.2622 32.2266 29.344 28.7926 32.6606C27.8827 33.5412 27.0169 34.3336 26.1951 35.0381C27.2517 35.0087 28.323 34.9647 29.409 34.906C30.5243 34.8473 31.757 34.8179 33.1071 34.8179L32.6229 38.34H21L21.3522 35.4343C24.4634 32.5873 26.65 30.3126 27.9121 28.6103C29.0861 27.0253 29.8199 25.5871 30.1134 24.2957C30.3482 22.2999 29.5851 21.3019 27.824 21.3019C27.3544 21.3019 26.7821 21.3753 26.107 21.5221C25.1091 21.7275 24.4487 21.933 24.1258 22.1384Z" fill="#262626"/>
</g>
</svg>
