<svg preserveAspectRatio="none" width="100%" height="100%" overflow="visible" style="display: block;" viewBox="0 0 56 56" fill="none" xmlns="http://www.w3.org/2000/svg">
<g id="Frame 1707491406">
<path d="M0 28C0 12.536 12.536 0 28 0V0C43.464 0 56 12.536 56 28V28C56 43.464 43.464 56 28 56V56C12.536 56 0 43.464 0 28V28Z" fill="#333333"/>
<path id="2" d="M33.1252 18L30.3027 38.34H26.0465L28.2866 22.301C27.6295 22.7789 26.9724 23.2567 26.3153 23.7346C25.6881 24.2125 25.0907 24.6456 24.5233 25.0339L23 22.3906C23.5974 21.9426 24.2096 21.5095 24.8369 21.0913C25.494 20.6433 26.0913 20.2252 26.6289 19.8369C27.1964 19.4486 27.7191 19.1051 28.197 18.8064C28.6749 18.4779 29.0482 18.2091 29.317 18H33.1252Z" fill="#262626"/>
</g>
</svg>
