<svg preserveAspectRatio="none" width="100%" height="100%" overflow="visible" style="display: block;" viewBox="0 0 68 68" fill="none" xmlns="http://www.w3.org/2000/svg">
<g id="Frame 1707491406">
<path d="M0 34C0 15.2223 15.2223 0 34 0V0C52.7777 0 68 15.2223 68 34V34C68 52.7777 52.7777 68 34 68V68C15.2223 68 0 52.7777 0 34V34Z" fill="#9678FF"/>
<path id="3" d="M29.1067 22.2267C29.7467 21.8356 30.76 21.5333 32.1467 21.32C33.5333 21.1067 34.6356 21 35.4533 21C37.9067 21 39.7378 21.5156 40.9467 22.5467C42.1556 23.5778 42.6178 25.0889 42.3333 27.08C41.9778 29.5689 40.5733 31.4711 38.12 32.7867C40.7867 33.64 41.8889 35.56 41.4267 38.5467C41.1067 41.1067 40.04 43.0444 38.2267 44.36C36.5911 45.5333 34.44 46.12 31.7733 46.12C29.7111 46.12 27.72 45.6044 25.8 44.5733C25.4089 44.3956 25.1422 44.2889 25 44.2533L26.8133 40.68C26.92 40.7156 27.1156 40.8222 27.4 41C27.72 41.1422 28.0933 41.2844 28.52 41.4267C29.6933 41.8178 30.7956 42.0133 31.8267 42.0133C32.8933 42.0133 33.8178 41.7467 34.6 41.2133C35.3822 40.6444 35.8622 39.7556 36.04 38.5467C36.2533 37.3378 36.04 36.4844 35.4 35.9867C34.7956 35.4889 34.0489 35.24 33.16 35.24C32.0933 35.24 31.0267 35.24 29.96 35.24L30.4933 31.6133H31.7733C32.84 31.6133 33.8356 31.4711 34.76 31.1867C34.8311 31.1156 34.9733 31.0089 35.1867 30.8667C35.4356 30.6889 35.6844 30.4578 35.9333 30.1733C36.4667 29.5333 36.8044 28.7511 36.9467 27.8267C37.0889 26.9022 36.8756 26.2089 36.3067 25.7467C35.7378 25.2844 35.0444 25.0533 34.2267 25.0533C33.4444 25.0533 32.8044 25.1067 32.3067 25.2133C31.8444 25.2844 31.4178 25.3733 31.0267 25.48C30.28 25.6222 29.7644 25.7644 29.48 25.9067L29.1067 22.2267Z" fill="white"/>
</g>
</svg>
