<svg preserveAspectRatio="none" width="100%" height="100%" overflow="visible" style="display: block;" viewBox="0 0 68 68" fill="none" xmlns="http://www.w3.org/2000/svg">
<g id="Frame 1707491406">
<path d="M0 34C0 15.2223 15.2223 0 34 0V0C52.7777 0 68 15.2223 68 34V34C68 52.7777 52.7777 68 34 68V68C15.2223 68 0 52.7777 0 34V34Z" fill="#9678FF"/>
<path id="1" d="M40.0533 22L36.6933 46.2133H31.6267L34.2933 27.12C33.5111 27.6889 32.7289 28.2578 31.9467 28.8267C31.2 29.3956 30.4889 29.9111 29.8133 30.3733L28 27.2267C28.7111 26.6933 29.44 26.1778 30.1867 25.68C30.9689 25.1467 31.68 24.6489 32.32 24.1867C32.9956 23.7244 33.6178 23.3156 34.1867 22.96C34.7556 22.5689 35.2 22.2489 35.52 22H40.0533Z" fill="white"/>
</g>
</svg>
