<svg width="20" height="20" viewBox="0 0 20 20" fill="none" xmlns="http://www.w3.org/2000/svg">
<path d="M1.66667 4.39167L2.73333 3.33333L16.6667 17.2667L15.6083 18.3333L7.5 10.225V14.5833C7.5 15.3569 7.19271 16.0987 6.64573 16.6457C6.09875 17.1927 5.35688 17.5 4.58333 17.5C3.80979 17.5 3.06792 17.1927 2.52094 16.6457C1.97396 16.0987 1.66667 15.3569 1.66667 14.5833C1.66667 13.8098 1.97396 13.0679 2.52094 12.5209C3.06792 11.974 3.80979 11.6667 4.58333 11.6667C5.03333 11.6667 5.45833 11.7667 5.83333 11.95V8.55833L1.66667 4.39167ZM17.5 2.5V12.9167C17.5 13.75 17.1417 14.5167 16.5667 15.05L12.45 10.9333C12.9833 10.3583 13.75 10 14.5833 10C15.0333 10 15.4583 10.1 15.8333 10.2833V5.39167L8.475 6.95833L6.38333 4.86667L17.5 2.5Z" fill="#262626"/>
</svg>
