<svg preserveAspectRatio="none" width="100%" height="100%" overflow="visible" style="display: block;" viewBox="0 0 16.6667 16.6667" fill="none" xmlns="http://www.w3.org/2000/svg">
<g id="Group 4613">
<path id="Subtract" d="M8.33333 0C12.9357 0 16.6667 3.73096 16.6667 8.33333C16.6667 12.9357 12.9357 16.6667 8.33333 16.6667C3.73096 16.6667 0 12.9357 0 8.33333C0 3.73096 3.73096 0 8.33333 0ZM8.33333 1.33301C4.46734 1.33301 1.33301 4.46734 1.33301 8.33333C1.33301 12.1993 4.46734 15.3337 8.33333 15.3337C12.1993 15.3337 15.3337 12.1993 15.3337 8.33333C15.3337 4.46734 12.1993 1.33301 8.33333 1.33301Z" fill="var(--fill-0, #868B90)"/>
<path id="?" d="M7.64974 9.40308C7.6595 8.19214 7.98177 7.81128 8.56771 7.44995C8.98763 7.17651 9.3099 6.87378 9.3099 6.42456C9.3099 5.93628 8.92904 5.61401 8.46029 5.61401C8.0013 5.61401 7.58138 5.91675 7.56185 6.49292H6.17513C6.20443 5.11597 7.22005 4.46167 8.47005 4.46167C9.82747 4.46167 10.7943 5.17456 10.7943 6.37573C10.7943 7.17651 10.3841 7.69409 9.73958 8.07495C9.19271 8.40698 8.94857 8.71948 8.9388 9.40308V9.5105H7.64974V9.40308ZM8.32357 11.7175C7.86458 11.7175 7.49349 11.3464 7.50325 10.8972C7.49349 10.448 7.86458 10.0867 8.32357 10.0867C8.75325 10.0867 9.13411 10.448 9.13411 10.8972C9.13411 11.3464 8.75325 11.7175 8.32357 11.7175Z" fill="var(--fill-0, #868B90)"/>
</g>
</svg>
