<svg preserveAspectRatio="none" width="100%" height="100%" overflow="visible" style="display: block;" viewBox="0 0 10.9621 15.8125" fill="none" xmlns="http://www.w3.org/2000/svg">
<path id="3" d="M2.58506 0.77216C2.98792 0.525965 3.6258 0.335723 4.49867 0.201434C5.37155 0.0671445 6.06538 0 6.58015 0C8.12447 0 9.27712 0.324531 10.0381 0.973593C10.7991 1.62266 11.09 2.57387 10.911 3.82723C10.6871 5.39393 9.80308 6.59134 8.25876 7.41945C9.93737 7.95661 10.6312 9.16521 10.3402 11.0452C10.1388 12.6567 9.46736 13.8765 8.3259 14.7046C7.29636 15.4432 5.94228 15.8125 4.26367 15.8125C2.96554 15.8125 1.71218 15.488 0.503583 14.8389C0.257387 14.727 0.0895258 14.6599 0 14.6375L1.14145 12.3881C1.2086 12.4105 1.3317 12.4777 1.51075 12.5896C1.71218 12.6791 1.94719 12.7686 2.21576 12.8581C2.95435 13.1043 3.64818 13.2274 4.29724 13.2274C4.96868 13.2274 5.5506 13.0596 6.04299 12.7239C6.53539 12.3658 6.83754 11.8062 6.94944 11.0452C7.08373 10.2843 6.94944 9.74712 6.54658 9.43378C6.16609 9.12044 5.69608 8.96377 5.13655 8.96377C4.4651 8.96377 3.79366 8.96377 3.12221 8.96377L3.45794 6.68086H4.26367C4.93511 6.68086 5.56179 6.59134 6.14371 6.41229C6.18847 6.36753 6.278 6.30038 6.41229 6.21085C6.56896 6.09895 6.72563 5.95347 6.8823 5.77442C7.21802 5.37155 7.43064 4.87916 7.52017 4.29724C7.6097 3.71532 7.47541 3.27888 7.1173 2.98792C6.7592 2.69697 6.32276 2.55149 5.80799 2.55149C5.3156 2.55149 4.91273 2.58506 4.59939 2.6522C4.30843 2.69697 4.03985 2.75292 3.79366 2.82006C3.32365 2.90959 2.99912 2.99912 2.82006 3.08864L2.58506 0.77216Z" fill="var(--fill-0, #262626)"/>
</svg>
